# xmcd
#
# Track frame offsets: 
#        150
#        19741
#        39403
#        60226
#        79646
#        98348
#        133451
#        154297
#        172630
#        193206
#        207929
#        225341
#        239477
#        254873
#        272664
#        292077
#        317544
#
# Disc length: 4475 seconds
#
# Revision: 2
# Processed by: cddbd v1.5.2PL0 Copyright (c) Steve Scherf et al.
# Submitted via: ExactAudioCopy v0.99pb4
#
DISCID=e7117911
DTITLE=Thalia - Primera Fila - Un Año Despues
DYEAR=2010
DGENRE=Latin
TTITLE0=consiendome el corazon
TTITLE1=enseñame a vivir
TTITLE2=que sera de ti
TTITLE3=como
TTITLE4=el proximo viernes
TTITLE5=medley
TTITLE6=estoy enamorado
TTITLE7=equivocada
TTITLE8=brindis
TTITLE9=con la duda
TTITLE10=cuando te beso
TTITLE11=ya lo sabia
TTITLE12=mujeres
TTITLE13=ay amor
TTITLE14=pienso en ti
TTITLE15=enseñame a vivir (dance remix)
TTITLE16=equivicada (bachata version)
EXTD=
EXTT0=
EXTT1=
EXTT2=
EXTT3=
EXTT4=
EXTT5=
EXTT6=
EXTT7=
EXTT8=
EXTT9=
EXTT10=
EXTT11=
EXTT12=
EXTT13=
EXTT14=
EXTT15=
EXTT16=
PLAYORDER=
